<svg width="94" height="69" viewBox="0 0 94 69" fill="none" xmlns="http://www.w3.org/2000/svg">
<g style="mix-blend-mode:luminosity" clip-path="url(#clip0_392_4664)">
<path d="M91.7914 9.4408C92.044 10.1304 90.7484 15.2448 86.6497 21.7056C78.6236 34.3645 65.4965 42.9187 52.0272 46.4324C47.2929 47.6638 42.3795 48.4601 37.5149 48.0168C33.7584 47.672 29.1138 46.7607 26.1152 44.0106C26.1152 44.0106 39.0956 62.2601 69.2284 53.632C104.438 43.5591 91.7914 9.4408 91.7914 9.4408Z" fill="url(#paint0_linear_392_4664)"/>
<path d="M48.3491 67.2833C50.7256 64.9525 50.7767 61.122 48.4632 58.7276C46.1497 56.3333 42.3476 56.2818 39.9711 58.6127C37.5945 60.9435 37.5434 64.774 39.857 67.1683C42.1705 69.5627 45.9725 69.6142 48.3491 67.2833Z" fill="url(#paint1_linear_392_4664)"/>
<path d="M75.8565 67.2282C78.2018 64.8654 78.2018 61.0345 75.8565 58.6717C73.5113 56.3089 69.7089 56.3089 67.3636 58.6717C65.0184 61.0345 65.0184 64.8654 67.3636 67.2282C69.7089 69.591 73.5113 69.591 75.8565 67.2282Z" fill="url(#paint2_linear_392_4664)"/>
<path d="M0 0C0 0 10.2181 2.61059 13.29 14.4814C16.1909 25.6708 16.802 38.3215 33.1396 44.889C49.4771 51.4565 60.5997 40.538 60.5997 40.538C60.5997 40.538 48.4993 46.3503 38.1753 33.2563C27.2646 19.3906 31.4854 1.24783 0 0Z" fill="url(#paint3_linear_392_4664)"/>
<path d="M69.5464 23.6102H49.811C50.6176 27.4194 53.6977 29.7509 58.1305 29.7509C60.1187 29.7509 61.7484 29.3486 63.1906 28.5195C64.6411 27.6903 66.4663 27.9859 67.5745 29.2501C68.9841 30.8591 68.699 33.4123 66.89 34.5534C64.4781 36.0721 61.4713 36.8602 57.9105 36.8602C47.8635 36.8602 41.3203 30.2024 41.3203 21.0982C41.3203 11.9939 47.9694 5.33612 56.8267 5.33612C65.684 5.33612 71.9583 11.37 71.9583 21.2049V21.2213C71.9583 22.543 70.8501 23.5938 69.5464 23.5938V23.6102ZM49.6969 18.4301H64.0136C63.4188 14.5635 60.6646 12.0596 56.8838 12.0596C53.1029 12.0596 50.2917 14.506 49.6969 18.4301Z" fill="#8F91B5"/>
<path d="M73.3846 30.7278C74.3135 30.2106 75.0387 27.9037 75.3728 26.9515C75.8617 25.5805 76.155 24.1767 76.318 22.7318C77.035 16.5337 75.5439 10.4095 73.2949 4.67114C74.5172 4.87638 75.7394 5.08161 76.9617 5.28685C78.8195 5.5988 80.7263 5.92718 82.3234 6.92052C86.7561 9.67888 84.4664 16.1479 82.8367 19.9981C80.9218 24.5133 77.6625 28.3306 73.3927 30.7196L73.3846 30.7278Z" fill="url(#paint4_linear_392_4664)"/>
</g>
<defs>
<linearGradient id="paint0_linear_392_4664" x1="89.8276" y1="9.11242" x2="50.415" y2="49.3895" gradientUnits="userSpaceOnUse">
<stop stop-color="#DB242A"/>
<stop offset="1" stop-color="#E58924"/>
</linearGradient>
<linearGradient id="paint1_linear_392_4664" x1="44.3561" y1="49.0671" x2="44.0666" y2="69.7875" gradientUnits="userSpaceOnUse">
<stop stop-color="#DB242A"/>
<stop offset="1" stop-color="#E58924"/>
</linearGradient>
<linearGradient id="paint2_linear_392_4664" x1="71.8144" y1="47.4763" x2="71.5249" y2="69.067" gradientUnits="userSpaceOnUse">
<stop stop-color="#DB242A"/>
<stop offset="1" stop-color="#E58924"/>
</linearGradient>
<linearGradient id="paint3_linear_392_4664" x1="52.7468" y1="50.5474" x2="20.1244" y2="17.9859" gradientUnits="userSpaceOnUse">
<stop stop-color="#DB242A"/>
<stop offset="1" stop-color="#E58924"/>
</linearGradient>
<linearGradient id="paint4_linear_392_4664" x1="73.6046" y1="34.1347" x2="78.6628" y2="11.3612" gradientUnits="userSpaceOnUse">
<stop stop-color="#DB242A"/>
<stop offset="1" stop-color="#E58924"/>
</linearGradient>
<clipPath id="clip0_392_4664">
<rect width="94" height="69" fill="white"/>
</clipPath>
</defs>
</svg>
