<svg width="79" height="58" viewBox="0 0 79 58" fill="none" xmlns="http://www.w3.org/2000/svg">
<g clip-path="url(#clip0_163_3405)">
<path d="M77.1451 7.93573C77.3574 8.51538 76.2686 12.8145 72.824 18.2453C66.0785 28.8861 55.0462 36.0766 43.7263 39.0301C39.7475 40.0652 35.6181 40.7345 31.5297 40.3619C28.3728 40.0721 24.4693 39.3061 21.9492 36.9944C21.9492 36.9944 32.8583 52.3345 58.1827 45.082C87.7734 36.6148 77.1451 7.93573 77.1451 7.93573Z" fill="url(#paint0_linear_163_3405)"/>
<path d="M40.6341 56.5571C42.6314 54.5978 42.6743 51.378 40.73 49.3653C38.7857 47.3527 35.5903 47.3094 33.593 49.2687C31.5957 51.2279 31.5528 54.4478 33.4971 56.4604C35.4414 58.4731 38.6368 58.5163 40.6341 56.5571Z" fill="url(#paint1_linear_163_3405)"/>
<path d="M63.7533 56.5107C65.7243 54.5246 65.7243 51.3044 63.7533 49.3183C61.7823 47.3322 58.5867 47.3322 56.6157 49.3183C54.6447 51.3044 54.6447 54.5246 56.6157 56.5107C58.5867 58.4968 61.7823 58.4968 63.7533 56.5107Z" fill="url(#paint2_linear_163_3405)"/>
<path d="M0 0C0 0 8.58755 2.19441 11.1693 12.1728C13.6072 21.5783 14.1208 32.2123 27.8513 37.7328C41.5818 43.2533 50.9295 34.0754 50.9295 34.0754C50.9295 34.0754 40.7601 38.9611 32.0835 27.9545C22.9138 16.2993 26.4612 1.0489 0 0Z" fill="url(#paint3_linear_163_3405)"/>
<path d="M58.4485 19.8463H41.8623C42.5403 23.0482 45.1289 25.008 48.8542 25.008C50.5252 25.008 51.8948 24.6699 53.1069 23.9729C54.3259 23.276 55.8599 23.5244 56.7912 24.5871C57.976 25.9396 57.7363 28.0857 56.216 29.0449C54.1889 30.3215 51.662 30.984 48.6694 30.984C40.2256 30.984 34.7266 25.3876 34.7266 17.7347C34.7266 10.0819 40.3146 4.48547 47.7585 4.48547C55.2025 4.48547 60.4755 9.55745 60.4755 17.8244V17.8382C60.4755 18.9492 59.5442 19.8325 58.4485 19.8325V19.8463ZM41.7664 15.492H53.7986C53.2987 12.2418 50.984 10.1371 47.8065 10.1371C44.629 10.1371 42.2664 12.1935 41.7664 15.492Z" fill="#020428"/>
<path d="M61.673 25.8292C62.4537 25.3944 63.0632 23.4554 63.3439 22.6549C63.7548 21.5025 64.0014 20.3225 64.1383 19.108C64.741 13.898 63.4877 8.75007 61.5977 3.92651C62.6249 4.09903 63.6521 4.27155 64.6793 4.44406C66.2407 4.70629 67.8432 4.98231 69.1854 5.81729C72.9108 8.13591 70.9864 13.5736 69.6168 16.81C68.0075 20.6054 65.2683 23.8142 61.6798 25.8223L61.673 25.8292Z" fill="url(#paint4_linear_163_3405)"/>
</g>
<defs>
<linearGradient id="paint0_linear_163_3405" x1="75.4947" y1="7.6597" x2="42.3652" y2="41.5097" gradientUnits="userSpaceOnUse">
<stop stop-color="#DB242A"/>
<stop offset="1" stop-color="#E58924"/>
</linearGradient>
<linearGradient id="paint1_linear_163_3405" x1="37.2783" y1="41.2449" x2="37.0349" y2="58.6621" gradientUnits="userSpaceOnUse">
<stop stop-color="#DB242A"/>
<stop offset="1" stop-color="#E58924"/>
</linearGradient>
<linearGradient id="paint2_linear_163_3405" x1="60.3562" y1="39.9077" x2="60.1129" y2="58.0564" gradientUnits="userSpaceOnUse">
<stop stop-color="#DB242A"/>
<stop offset="1" stop-color="#E58924"/>
</linearGradient>
<linearGradient id="paint3_linear_163_3405" x1="44.3298" y1="42.4891" x2="16.908" y2="15.1237" gradientUnits="userSpaceOnUse">
<stop stop-color="#DB242A"/>
<stop offset="1" stop-color="#E58924"/>
</linearGradient>
<linearGradient id="paint4_linear_163_3405" x1="61.8579" y1="28.693" x2="66.1104" y2="9.55041" gradientUnits="userSpaceOnUse">
<stop stop-color="#DB242A"/>
<stop offset="1" stop-color="#E58924"/>
</linearGradient>
<clipPath id="clip0_163_3405">
<rect width="79" height="58" fill="white"/>
</clipPath>
</defs>
</svg>
