<svg width="22" height="17" viewBox="0 0 22 17" fill="none" xmlns="http://www.w3.org/2000/svg">
<path d="M4.50489 16.5763V15.5025C4.50489 15.0908 4.25428 14.8224 3.82472 14.8224C3.60998 14.8224 3.37731 14.894 3.21621 15.1267C3.09099 14.9298 2.91204 14.8224 2.64358 14.8224C2.46454 14.8224 2.28568 14.8761 2.14244 15.073V14.8582H1.7666V16.5763H2.14244V15.6278C2.14244 15.3236 2.30353 15.1803 2.55414 15.1803C2.80459 15.1803 2.92998 15.3414 2.92998 15.6278V16.5763H3.30581V15.6278C3.30581 15.3236 3.48468 15.1803 3.71735 15.1803C3.96796 15.1803 4.09319 15.3414 4.09319 15.6278V16.5763H4.50489ZM10.0707 14.8582H9.46231V14.3392H9.08648V14.8582H8.74644V15.1982H9.0864V15.9857C9.0864 16.3795 9.24749 16.6121 9.67705 16.6121C9.83815 16.6121 10.017 16.5585 10.1424 16.4869L10.035 16.1647C9.92758 16.2363 9.80236 16.2542 9.71284 16.2542C9.53389 16.2542 9.46231 16.1468 9.46231 15.9678V15.1982H10.0707V14.8582ZM13.2564 14.8224C13.0417 14.8224 12.8985 14.9298 12.809 15.073V14.8582H12.4332V16.5763H12.809V15.6099C12.809 15.3236 12.9343 15.1625 13.1669 15.1625C13.2385 15.1625 13.328 15.1804 13.3996 15.1983L13.507 14.8404C13.4354 14.8224 13.328 14.8224 13.2564 14.8224M8.44218 15.0015C8.26315 14.8762 8.01262 14.8225 7.74416 14.8225C7.31468 14.8225 7.02836 15.0373 7.02836 15.3773C7.02836 15.6637 7.2431 15.8247 7.61893 15.8784L7.79788 15.8964C7.99477 15.9321 8.10214 15.9858 8.10214 16.0753C8.10214 16.2006 7.95898 16.2901 7.70837 16.2901C7.45784 16.2901 7.26095 16.2006 7.13565 16.1111L6.9567 16.3974C7.15358 16.5406 7.42205 16.6122 7.69043 16.6122C8.19157 16.6122 8.47797 16.3796 8.47797 16.0574C8.47797 15.7531 8.2453 15.592 7.88732 15.5384L7.70837 15.5205C7.54727 15.5025 7.42205 15.4668 7.42205 15.3595C7.42205 15.2341 7.54727 15.1626 7.74416 15.1626C7.95898 15.1626 8.17372 15.252 8.28109 15.3057L8.44218 15.0015ZM18.4287 14.8225C18.2139 14.8225 18.0707 14.9299 17.9812 15.0731V14.8583H17.6054V16.5764H17.9812V15.61C17.9812 15.3237 18.1065 15.1626 18.3391 15.1626C18.4108 15.1626 18.5003 15.1805 18.5718 15.1984L18.6792 14.8405C18.6076 14.8225 18.5003 14.8225 18.4287 14.8225ZM13.6323 15.7174C13.6323 16.2363 13.9902 16.6122 14.545 16.6122C14.7956 16.6122 14.9745 16.5585 15.1535 16.4154L14.9745 16.1111C14.8314 16.2185 14.6882 16.2721 14.5271 16.2721C14.2229 16.2721 14.0081 16.0574 14.0081 15.7174C14.0081 15.3952 14.2229 15.1804 14.5271 15.1626C14.6882 15.1626 14.8314 15.2162 14.9745 15.3237L15.1535 15.0194C14.9745 14.8762 14.7956 14.8225 14.545 14.8225C13.9902 14.8225 13.6323 15.1984 13.6323 15.7174ZM17.1043 15.7174V14.8583H16.7285V15.0731C16.6032 14.912 16.4242 14.8225 16.1915 14.8225C15.7083 14.8225 15.3325 15.1984 15.3325 15.7174C15.3325 16.2363 15.7083 16.6122 16.1915 16.6122C16.4421 16.6122 16.6211 16.5227 16.7285 16.3616V16.5764H17.1043V15.7174ZM15.7262 15.7174C15.7262 15.4131 15.9231 15.1626 16.2452 15.1626C16.5494 15.1626 16.7643 15.3952 16.7643 15.7174C16.7643 16.0216 16.5494 16.2721 16.2452 16.2721C15.9231 16.2542 15.7262 16.0216 15.7262 15.7174ZM11.2341 14.8225C10.733 14.8225 10.375 15.1804 10.375 15.7174C10.375 16.2543 10.7329 16.6122 11.252 16.6122C11.5025 16.6122 11.7531 16.5406 11.95 16.3796L11.771 16.1111C11.6278 16.2185 11.4489 16.2901 11.2699 16.2901C11.0372 16.2901 10.8046 16.1827 10.7508 15.8784H12.0216V15.7353C12.0395 15.1804 11.7174 14.8225 11.2341 14.8225ZM11.234 15.1446C11.4666 15.1446 11.6278 15.2879 11.6635 15.5563H10.7687C10.8045 15.3237 10.9656 15.1446 11.234 15.1446ZM20.5583 15.7174V14.1782H20.1825V15.0731C20.0572 14.912 19.8782 14.8225 19.6455 14.8225C19.1623 14.8225 18.7865 15.1984 18.7865 15.7174C18.7865 16.2363 19.1623 16.6122 19.6455 16.6122C19.8962 16.6122 20.0751 16.5227 20.1825 16.3616V16.5764H20.5583V15.7174ZM19.1803 15.7174C19.1803 15.4131 19.3771 15.1626 19.6993 15.1626C20.0035 15.1626 20.2183 15.3952 20.2183 15.7174C20.2183 16.0216 20.0035 16.2721 19.6993 16.2721C19.3771 16.2542 19.1803 16.0216 19.1803 15.7174ZM6.61657 15.7174V14.8583H6.24074V15.0731C6.11543 14.912 5.93649 14.8225 5.70381 14.8225C5.22061 14.8225 4.84477 15.1984 4.84477 15.7174C4.84477 16.2363 5.22061 16.6122 5.70381 16.6122C5.95442 16.6122 6.13337 16.5227 6.24074 16.3616V16.5764H6.61657V15.7174ZM5.22061 15.7174C5.22061 15.4131 5.41749 15.1626 5.7396 15.1626C6.04385 15.1626 6.25868 15.3952 6.25868 15.7174C6.25868 16.0216 6.04385 16.2721 5.7396 16.2721C5.41749 16.2542 5.22061 16.0216 5.22061 15.7174Z" fill="white"/>
<path d="M8.31738 1.8114H13.9549V11.9411H8.31738V1.8114Z" fill="#FF5F00"/>
<path d="M8.67512 6.87626C8.67512 4.81814 9.64152 2.99261 11.1269 1.81138C10.0353 0.952343 8.65726 0.43335 7.15392 0.43335C3.59231 0.43335 0.710938 3.31472 0.710938 6.87626C0.710938 10.4377 3.59231 13.3192 7.15384 13.3192C8.65718 13.3192 10.0352 12.8002 11.1269 11.9411C9.64152 10.7778 8.67512 8.93438 8.67512 6.87626Z" fill="#EB001B"/>
<path d="M21.5615 6.87626C21.5615 10.4377 18.6801 13.3192 15.1186 13.3192C13.6153 13.3192 12.2372 12.8002 11.1455 11.9411C12.6488 10.7599 13.5974 8.93438 13.5974 6.87626C13.5974 4.81814 12.6309 2.99261 11.1455 1.81138C12.2371 0.952343 13.6153 0.43335 15.1186 0.43335C18.6801 0.43335 21.5615 3.33265 21.5615 6.87626Z" fill="#F79E1B"/>
</svg>
