<svg width="14" height="17" viewBox="0 0 14 17" fill="none" xmlns="http://www.w3.org/2000/svg">
<path d="M11.088 2.0514C10.3802 1.24467 9.10075 0.898804 7.46397 0.898804H2.71358C2.55163 0.89881 2.395 0.956586 2.27184 1.06174C2.14869 1.1669 2.06708 1.31255 2.0417 1.47249L0.0637266 14.0173C0.0244109 14.2647 0.215961 14.4887 0.466687 14.4887H3.39942L4.13595 9.81697L4.11309 9.96326C4.16557 9.63304 4.44799 9.38948 4.78243 9.38948H6.17605C8.91383 9.38948 11.0576 8.27746 11.6838 5.06063C11.7023 4.96549 11.7185 4.87289 11.7324 4.78243C11.6533 4.74057 11.6533 4.74057 11.7324 4.78243C11.9188 3.59345 11.7311 2.78413 11.088 2.0514Z" fill="#3B4FA0"/>
<path d="M5.25813 4.35412C5.3383 4.31594 5.426 4.29616 5.5148 4.29621H9.23902C9.68003 4.29621 10.0914 4.32491 10.4673 4.38541C10.5724 4.40218 10.6771 4.4222 10.781 4.44545C10.9283 4.47796 11.074 4.51774 11.2174 4.56466C11.4021 4.62638 11.5742 4.69826 11.7324 4.78242C11.9188 3.593 11.7311 2.78413 11.088 2.0514C10.3798 1.24467 9.10076 0.898804 7.46397 0.898804H2.71317C2.37868 0.898804 2.09413 1.14232 2.0417 1.47249L0.0637269 14.0168C0.0244112 14.2646 0.215961 14.4883 0.466281 14.4883H3.39942L4.9275 4.79807C4.94252 4.70282 4.98047 4.61265 5.03806 4.53532C5.09565 4.45798 5.17118 4.3958 5.25813 4.35412Z" fill="#3B4FA0"/>
<path d="M11.6838 5.06056C11.0575 8.27693 8.91387 9.3894 6.17605 9.3894H4.78201C4.44758 9.3894 4.1651 9.63296 4.11314 9.96319L3.19684 15.7719C3.1626 15.9884 3.33002 16.1846 3.54905 16.1846H6.02127C6.16289 16.1845 6.29984 16.134 6.40751 16.042C6.51518 15.95 6.58649 15.8226 6.60862 15.6827L6.6327 15.5567L7.09864 12.6037L7.12866 12.4405C7.15079 12.3006 7.2221 12.1732 7.32975 12.0812C7.43741 11.9892 7.57435 11.9387 7.71596 11.9386H8.08596C10.4808 11.9386 12.356 10.9657 12.904 8.15182C13.1327 6.9759 13.0144 5.99413 12.4093 5.30453C12.2258 5.09566 11.9979 4.92315 11.7324 4.78235C11.718 4.87327 11.7024 4.96542 11.6838 5.06056Z" fill="#2894C8"/>
<path d="M11.0768 4.521C10.9791 4.49248 10.8806 4.46724 10.7813 4.44531C10.6773 4.42244 10.5726 4.40256 10.4675 4.38568C10.0912 4.32477 9.68016 4.29602 9.23875 4.29602H5.51498C5.42611 4.29582 5.33836 4.31578 5.25831 4.35439C5.17127 4.39594 5.09566 4.45809 5.03804 4.53544C4.98042 4.6128 4.94252 4.70304 4.92763 4.79834L4.13614 9.81683L4.11328 9.96312C4.16535 9.6329 4.44777 9.38934 4.78226 9.38934H6.17629C8.91407 9.38934 11.0577 8.27732 11.6839 5.06049C11.7026 4.96535 11.7182 4.87316 11.7326 4.78229C11.574 4.69858 11.4024 4.62624 11.2175 4.56493C11.1709 4.54947 11.124 4.53482 11.0768 4.521" fill="#323E80"/>
</svg>
