<svg width="19" height="19" viewBox="0 0 19 19" fill="none" xmlns="http://www.w3.org/2000/svg">
<path d="M16.2324 7.15079C16.2324 7.15079 15.7173 13.3984 15.4184 16.03C15.2761 17.287 14.4821 18.0235 13.1815 18.0467C10.7065 18.0903 8.22858 18.0931 5.75448 18.0421C4.50321 18.017 3.72246 17.2712 3.58301 16.0365C3.28229 13.3817 2.77002 7.15079 2.77002 7.15079" stroke="#DB4444" stroke-width="1.71742" stroke-linecap="round" stroke-linejoin="round"/>
<path d="M17.5438 4.15656H1.45654" stroke="#DB4444" stroke-width="1.71742" stroke-linecap="round" stroke-linejoin="round"/>
<path d="M6.19838 7.4135L7.29248 17.542" stroke="#DB4444" stroke-width="1.71742" stroke-linecap="round" stroke-linejoin="round"/>
<path d="M12.4175 7.3304L11.541 17.4791" stroke="#DB4444" stroke-width="1.71742" stroke-linecap="round" stroke-linejoin="round"/>
<path d="M14.4435 4.15661C13.6988 4.15661 13.0575 3.64177 12.9114 2.92843L12.6809 1.80046C12.5386 1.28006 12.0567 0.920135 11.5074 0.920135H7.49175C6.94248 0.920135 6.46057 1.28006 6.31827 1.80046L6.08773 2.92843C5.94164 3.64177 5.30036 4.15661 4.55566 4.15661" stroke="#DB4444" stroke-width="1.71742" stroke-linecap="round" stroke-linejoin="round"/>
</svg>
