<svg width="32" height="32" viewBox="0 0 32 32" fill="none" xmlns="http://www.w3.org/2000/svg">
<path d="M28.0025 4.00166L31.5761 4.71594C31.768 4.75432 31.9257 4.89504 31.9812 5.0848C32.0092 5.17698 32.0117 5.27503 31.9884 5.36851C31.9651 5.462 31.9169 5.54743 31.849 5.61572L28.9215 8.54533C28.5712 8.89494 28.0966 9.09125 27.6017 9.09117H25.1731L19.0751 15.1913C19.1914 15.6306 19.2128 16.0896 19.1378 16.5378C19.0629 16.986 18.8932 17.4131 18.6403 17.7906C18.3873 18.1681 18.0568 18.4873 17.6708 18.7271C17.2847 18.9668 16.852 19.1216 16.4015 19.181C15.951 19.2404 15.493 19.2031 15.058 19.0716C14.623 18.9401 14.2211 18.7175 13.8789 18.4184C13.5367 18.1194 13.2622 17.7509 13.0736 17.3375C12.885 16.9241 12.7867 16.4752 12.7852 16.0208C12.7855 15.5301 12.8986 15.0461 13.1158 14.6062C13.333 14.1662 13.6484 13.7821 14.0377 13.4835C14.427 13.1849 14.8797 12.9798 15.3609 12.884C15.8421 12.7882 16.3389 12.8044 16.8128 12.9312L22.913 6.82893V4.40464C22.913 3.90997 23.1092 3.4345 23.4588 3.08482L26.3885 0.155203C26.4568 0.0872484 26.5422 0.0390707 26.6357 0.0157934C26.7291 -0.00748386 26.8272 -0.00499058 26.9194 0.0230082C27.1091 0.0784448 27.2499 0.236226 27.2882 0.428122L28.0025 4.00166Z" fill="white"/>
<path d="M3.19138 16.0207C3.19358 17.85 3.58806 19.6576 4.34824 21.3215C5.10841 22.9854 6.21659 24.467 7.59802 25.6662C8.97945 26.8654 10.602 27.7544 12.3562 28.2732C14.1104 28.792 15.9555 28.9286 17.767 28.6737C19.5785 28.4188 21.3142 27.7784 22.8572 26.7956C24.4001 25.8129 25.7143 24.5106 26.7112 22.9768C27.708 21.4429 28.3644 19.7131 28.6359 17.9041C28.9074 16.095 28.7877 14.2487 28.285 12.4898C28.2144 12.2843 28.1864 12.0666 28.2027 11.85C28.2189 11.6333 28.2791 11.4222 28.3795 11.2295C28.4799 11.0368 28.6185 10.8666 28.7868 10.7292C28.9552 10.5918 29.1497 10.4901 29.3586 10.4303C29.5674 10.3705 29.7863 10.3538 30.0018 10.3812C30.2174 10.4087 30.4251 10.4798 30.6123 10.59C30.7995 10.7003 30.9623 10.8476 31.0907 11.0228C31.2192 11.198 31.3107 11.3975 31.3596 11.6092C32.333 15.0154 32.1481 18.6484 30.8339 21.9382C29.5197 25.228 27.1506 27.9885 24.0983 29.7865C21.0459 31.5845 17.4831 32.3184 13.9686 31.873C10.4541 31.4276 7.18696 29.8282 4.67965 27.3255C2.17506 24.8188 0.573868 21.5514 0.127451 18.0361C-0.318967 14.5208 0.414674 10.9568 2.21319 7.90366C4.0117 4.8505 6.77325 2.48108 10.0642 1.1674C13.3552 -0.146286 16.9893 -0.329836 20.3959 0.645566C20.8016 0.76414 21.1438 1.03846 21.3478 1.40857C21.5518 1.77868 21.6009 2.2145 21.4846 2.62077C21.3682 3.02704 21.0958 3.37073 20.7268 3.57674C20.3578 3.78274 19.9223 3.83431 19.5154 3.72017C17.6104 3.17362 15.6046 3.07703 13.6559 3.43801C11.7073 3.79899 9.86917 4.60768 8.28642 5.80032C6.70368 6.99296 5.4196 8.53695 4.53543 10.3106C3.65125 12.0842 3.19114 14.0389 3.19138 16.0207Z" fill="white"/>
<path d="M9.58796 16.0208C9.58809 17.1862 9.9064 18.3295 10.5086 19.3273C11.1107 20.3251 11.9739 21.1396 13.0049 21.6828C14.036 22.2261 15.1958 22.4776 16.3593 22.4101C17.5227 22.3427 18.6457 21.9589 19.6071 21.3C20.5683 20.6396 21.3306 19.7289 21.8116 18.6665C22.2926 17.6041 22.4741 16.4304 22.3363 15.2724C22.299 14.9914 22.3373 14.7055 22.4472 14.4442C22.5572 14.1829 22.7348 13.9556 22.9617 13.7858C23.1887 13.6159 23.4568 13.5097 23.7385 13.4779C24.0202 13.4461 24.3053 13.49 24.5644 13.605C24.8234 13.7185 25.0477 13.8987 25.2144 14.1272C25.3811 14.3557 25.4842 14.6243 25.5132 14.9056C25.7449 16.8845 25.3548 18.8864 24.397 20.6335C23.4393 22.3806 21.9614 23.7863 20.1686 24.6553C18.3757 25.5243 16.3568 25.8137 14.392 25.4832C12.4272 25.1527 10.614 24.2188 9.20409 22.811C7.79419 21.4033 6.85749 19.5915 6.52403 17.6272C6.19056 15.6629 6.47685 13.6436 7.34317 11.8494C8.20949 10.0552 9.61287 8.57518 11.3585 7.61479C13.1042 6.6544 15.1055 6.26126 17.0847 6.48993C17.2966 6.50959 17.5025 6.57136 17.6902 6.67162C17.878 6.77188 18.0438 6.90861 18.1781 7.07379C18.3123 7.23898 18.4122 7.42929 18.4719 7.63358C18.5316 7.83788 18.5499 8.05203 18.5258 8.2635C18.5017 8.47496 18.4356 8.67949 18.3314 8.86508C18.2272 9.05067 18.087 9.21359 17.919 9.3443C17.751 9.475 17.5586 9.57086 17.3531 9.62625C17.1476 9.68164 16.9331 9.69545 16.7222 9.66687C15.826 9.56281 14.9179 9.64954 14.0575 9.92135C13.1972 10.1932 12.404 10.6439 11.7303 11.244C11.0565 11.8441 10.5173 12.5799 10.148 13.4032C9.77883 14.2264 9.58795 15.1185 9.58796 16.0208Z" fill="white"/>
</svg>
