<svg width="41" height="37" viewBox="0 0 41 37" fill="none" xmlns="http://www.w3.org/2000/svg">
<path d="M18.5566 27.7558L22.2359 31.4351C22.5983 31.7975 23.0285 32.0849 23.502 32.281C23.9754 32.4771 24.4829 32.5781 24.9954 32.5781C25.5078 32.5781 26.0153 32.4771 26.4888 32.281C26.9622 32.0849 27.3924 31.7975 27.7548 31.4351C28.1172 31.0727 28.4046 30.6425 28.6008 30.169C28.7969 29.6956 28.8978 29.1881 28.8978 28.6756C28.8978 28.1631 28.7969 27.6557 28.6008 27.1822C28.4046 26.7087 28.1172 26.2785 27.7548 25.9162" stroke="white" stroke-width="2.5" stroke-linecap="round" stroke-linejoin="round"/>
<path d="M24.0752 22.2369L28.6743 26.836C29.4062 27.5679 30.3988 27.979 31.4338 27.979C32.4688 27.979 33.4614 27.5679 34.1932 26.836C34.9251 26.1042 35.3362 25.1115 35.3362 24.0766C35.3362 23.0416 34.9251 22.049 34.1932 21.3171L27.0555 14.1793C26.0207 13.1458 24.6179 12.5653 23.1554 12.5653C21.6929 12.5653 20.2902 13.1458 19.2554 14.1793L17.6365 15.7982C16.9047 16.53 15.9121 16.9412 14.8771 16.9412C13.8421 16.9412 12.8495 16.53 12.1176 15.7982C11.3858 15.0663 10.9746 14.0737 10.9746 13.0387C10.9746 12.0037 11.3858 11.0111 12.1176 10.2793L17.287 5.10991C18.9652 3.43611 21.1537 2.36987 23.5061 2.07998C25.8586 1.79009 28.2405 2.29312 30.2748 3.50943L31.1394 4.02453C31.9227 4.49729 32.8541 4.66125 33.7517 4.48443L36.9527 3.84056" stroke="white" stroke-width="2.5" stroke-linecap="round" stroke-linejoin="round"/>
<path d="M36.9531 2.00076L38.7927 22.2368H35.1134M3.83964 2.00076L2 22.2368L13.9576 34.1944C14.6895 34.9262 15.6821 35.3374 16.7171 35.3374C17.7521 35.3374 18.7447 34.9262 19.4765 34.1944C20.2084 33.4625 20.6195 32.4699 20.6195 31.4349C20.6195 30.3999 20.2084 29.4073 19.4765 28.6755M3.83964 3.8404H18.5567" stroke="white" stroke-width="2.5" stroke-linecap="round" stroke-linejoin="round"/>
</svg>
