<svg width="38" height="38" viewBox="0 0 38 38" fill="currentColor" xmlns="http://www.w3.org/2000/svg">
<path d="M19 0C29.4937 0 38 8.5063 38 19C38 29.4937 29.4937 38 19 38C8.5063 38 0 29.4937 0 19C0 8.5063 8.5063 0 19 0ZM19.304 26.6C17.4659 26.5979 15.6475 26.9778 13.964 27.7157C12.2805 28.4536 10.7688 29.5333 9.5247 30.8864C12.2142 33.0366 15.5566 34.2055 19 34.2C22.5954 34.2052 26.0754 32.9309 28.8173 30.6052C27.5799 29.3355 26.1004 28.3269 24.4664 27.6389C22.8323 26.951 21.0769 26.5977 19.304 26.6ZM19 3.8C16.173 3.80007 13.402 4.58854 10.9984 6.07682C8.59484 7.5651 6.65395 9.6942 5.39385 12.2249C4.13375 14.7555 3.60437 17.5875 3.86521 20.4024C4.12605 23.2174 5.16676 25.9039 6.8704 28.1599C8.4671 26.4649 10.394 25.1149 12.5324 24.193C14.6708 23.2712 16.9754 22.7971 19.304 22.8C21.5491 22.7971 23.7727 23.2377 25.8471 24.0965C27.9215 24.9554 29.8058 26.2155 31.3918 27.8046C33.0078 25.5305 33.9667 22.8555 34.1636 20.0727C34.3605 17.2899 33.7877 14.5066 32.508 12.0276C31.2283 9.54863 29.2911 7.46968 26.9084 6.01845C24.5258 4.56723 21.7898 3.79972 19 3.8ZM19 5.7C21.0156 5.7 22.9487 6.50071 24.374 7.92599C25.7993 9.35126 26.6 11.2844 26.6 13.3C26.6 15.3156 25.7993 17.2487 24.374 18.674C22.9487 20.0993 21.0156 20.9 19 20.9C16.9844 20.9 15.0513 20.0993 13.626 18.674C12.2007 17.2487 11.4 15.3156 11.4 13.3C11.4 11.2844 12.2007 9.35126 13.626 7.92599C15.0513 6.50071 16.9844 5.7 19 5.7ZM19 9.5C17.9922 9.5 17.0256 9.90036 16.313 10.613C15.6004 11.3256 15.2 12.2922 15.2 13.3C15.2 14.3078 15.6004 15.2744 16.313 15.987C17.0256 16.6996 17.9922 17.1 19 17.1C20.0078 17.1 20.9744 16.6996 21.687 15.987C22.3996 15.2744 22.8 14.3078 22.8 13.3C22.8 12.2922 22.3996 11.3256 21.687 10.613C20.9744 9.90036 20.0078 9.5 19 9.5Z" fill="white"/>
</svg>
