<svg width="30" height="30" viewBox="0 0 30 30" fill="none" xmlns="http://www.w3.org/2000/svg">
<path d="M9.375 25.3125C9.89277 25.3125 10.3125 24.8928 10.3125 24.375C10.3125 23.8572 9.89277 23.4375 9.375 23.4375C8.85723 23.4375 8.4375 23.8572 8.4375 24.375C8.4375 24.8928 8.85723 25.3125 9.375 25.3125Z" stroke="white" stroke-width="1.8" stroke-linecap="round" stroke-linejoin="round"/>
<path d="M22.5 25.3125C23.0178 25.3125 23.4375 24.8928 23.4375 24.375C23.4375 23.8572 23.0178 23.4375 22.5 23.4375C21.9822 23.4375 21.5625 23.8572 21.5625 24.375C21.5625 24.8928 21.9822 25.3125 22.5 25.3125Z" stroke="white" stroke-width="1.8" stroke-linecap="round" stroke-linejoin="round"/>
<path d="M1.875 4.6875H5.625L8.4375 20.625H23.4375" stroke="white" stroke-width="1.8" stroke-linecap="round" stroke-linejoin="round"/>
<path d="M8.4375 15.625H23.0531C23.1615 15.6251 23.2666 15.5876 23.3505 15.5189C23.4343 15.4502 23.4918 15.3546 23.5131 15.2483L25.2006 6.81077C25.2142 6.74274 25.2125 6.67253 25.1957 6.60521C25.1789 6.53789 25.1474 6.47514 25.1034 6.4215C25.0594 6.36785 25.004 6.32464 24.9413 6.29499C24.8785 6.26534 24.81 6.24998 24.7406 6.25003H6.5625" stroke="white" stroke-width="1.8" stroke-linecap="round" stroke-linejoin="round"/>
</svg>
