<svg width="31" height="32" viewBox="0 0 31 32" fill="none" xmlns="http://www.w3.org/2000/svg">
<path d="M26.7126 25.8352C13.7591 31.9999 5.71996 26.842 0.573871 23.7092C0.255433 23.5118 -0.285801 23.7554 0.183793 24.2948C1.89821 26.3736 7.51673 31.384 14.8505 31.384C22.1894 31.384 26.5553 27.3796 27.1015 26.681C27.6439 25.9884 27.2608 25.6063 26.7125 25.8352H26.7126ZM30.3506 23.8261C30.0027 23.3731 28.2354 23.2886 27.1231 23.4253C26.0092 23.558 24.3371 24.2388 24.4825 24.6476C24.5571 24.8007 24.7093 24.732 25.4746 24.6632C26.2419 24.5866 28.3916 24.3153 28.8395 24.9009C29.2896 25.4905 28.1539 28.2992 27.9465 28.7522C27.7461 29.2052 28.0231 29.322 28.3995 29.0203C28.7707 28.7187 29.4428 27.9377 29.8938 26.8324C30.3417 25.7212 30.6149 24.171 30.3505 23.8261H30.3506Z" fill="#FF9900"/>
<path fill-rule="evenodd" clip-rule="evenodd" d="M18.0026 13.256C18.0026 14.8735 18.0435 16.2225 17.2259 17.659C16.566 18.827 15.5207 19.5452 14.3528 19.5452C12.7586 19.5452 11.8301 18.3306 11.8301 16.5378C11.8301 12.999 15.0009 12.3567 18.0026 12.3567V13.256ZM22.1896 23.3761C21.9151 23.6213 21.518 23.6389 21.2085 23.4753C19.8304 22.3308 19.5851 21.7994 18.826 20.7073C16.5485 23.0315 14.9368 23.7264 11.982 23.7264C8.48986 23.7264 5.76855 21.5716 5.76855 17.2561C5.76855 13.8867 7.59646 11.5917 10.1949 10.4705C12.4491 9.47768 15.5967 9.30252 18.0026 9.02815V8.49086C18.0026 7.50391 18.0784 6.33602 17.5004 5.48348C16.9923 4.71847 16.0229 4.40311 15.1703 4.40311C13.5878 4.40311 12.1746 5.21478 11.8301 6.89658C11.7599 7.2704 11.4855 7.63833 11.1118 7.6558L7.08243 7.22375C6.74381 7.14768 6.3701 6.87331 6.46353 6.3535C7.39201 1.47168 11.8008 0 15.7483 0C17.7689 0 20.4083 0.537295 22.0026 2.06732C24.0231 3.95346 23.8304 6.47031 23.8304 9.2091V15.6794C23.8304 17.624 24.6363 18.4765 25.3954 19.5277C25.664 19.9014 25.7224 20.3512 25.3837 20.6314C24.5369 21.3379 23.0303 22.6519 22.2011 23.3878L22.1895 23.3761" fill="black"/>
</svg>
