<svg width="18" height="28" viewBox="0 0 18 28" fill="none" xmlns="http://www.w3.org/2000/svg">
<path d="M9 1V27" stroke="#020428" stroke-width="2" stroke-linecap="round" stroke-linejoin="round"/>
<path d="M16 9C16 8.34339 15.8707 7.69321 15.6194 7.08658C15.3681 6.47996 14.9998 5.92876 14.5355 5.46447C14.0712 5.00017 13.52 4.63188 12.9134 4.3806C12.3068 4.12933 11.6566 4 11 4H6.5C5.17392 4 3.90215 4.52678 2.96447 5.46447C2.02678 6.40215 1.5 7.67392 1.5 9C1.5 10.3261 2.02678 11.5979 2.96447 12.5355C3.90215 13.4732 5.17392 14 6.5 14H12C13.3261 14 14.5979 14.5268 15.5355 15.4645C16.4732 16.4021 17 17.6739 17 19C17 20.3261 16.4732 21.5979 15.5355 22.5355C14.5979 23.4732 13.3261 24 12 24H6C4.67392 24 3.40215 23.4732 2.46447 22.5355C1.52678 21.5979 1 20.3261 1 19" stroke="#020428" stroke-width="2" stroke-linecap="round" stroke-linejoin="round"/>
</svg>
