<svg width="23" height="23" viewBox="0 0 23 23" fill="none" xmlns="http://www.w3.org/2000/svg">
<path d="M4.156 0L3.969 0.781L0.281 17.781L0 19H4.875L4.281 21.781L4 23H10.969L11.125 22.187L12.156 17.375H14.844C18.605 17.375 21.91 14.93 22.75 11C23.191 8.934 22.723 7.184 21.75 6C20.96 5.04 19.89 4.46 18.781 4.187C18.566 3.199 18.113 2.359 17.5 1.719C16.363 0.535 14.785 0 13.312 0H4.156ZM5.781 2H13.312C14.293 2 15.375 2.379 16.062 3.094C16.75 3.809 17.152 4.828 16.782 6.563C16.122 9.656 13.785 11.375 10.844 11.375H6.53L6.374 12.156L5.344 17H2.5L5.781 2ZM8.312 3.469L8.125 4.25L7.094 8.875L6.813 10.094H10.343C12.121 10.094 13.656 8.801 14.093 7.063H14.125C14.129 7.043 14.121 7.02 14.125 7C14.344 6.125 14.203 5.227 13.719 4.562C13.223 3.882 12.387 3.469 11.5 3.469H8.312ZM9.906 5.469H11.5C11.813 5.469 11.977 5.559 12.094 5.719C12.211 5.879 12.293 6.137 12.187 6.531V6.562C12 7.372 11.043 8.094 10.344 8.094H9.313L9.906 5.469ZM18.844 6.344C19.371 6.559 19.867 6.852 20.219 7.281C20.801 7.988 21.121 8.965 20.781 10.562C20.121 13.656 17.785 15.375 14.844 15.375H10.53L10.374 16.156L9.344 21H6.5L6.938 19H6.968L7.125 18.187L8.156 13.375H10.844C14.605 13.375 17.91 10.93 18.75 7C18.797 6.773 18.816 6.562 18.844 6.344Z" fill="black"/>
</svg>
