<svg width="47" height="47" viewBox="0 0 47 47" fill="none" xmlns="http://www.w3.org/2000/svg">
<path d="M10.2692 23.501V14.8022C10.2951 13.0923 10.6581 11.4044 11.3374 9.83499C12.0168 8.26563 12.9991 6.84572 14.2282 5.65665C15.4573 4.46757 16.9089 3.53269 18.4999 2.90558C20.091 2.27846 21.7901 1.97143 23.5 2.00209C25.2099 1.97143 26.909 2.27846 28.5001 2.90558C30.0911 3.53269 31.5427 4.46757 32.7718 5.65665C34.0009 6.84572 34.9832 8.26563 35.6626 9.83499C36.3419 11.4044 36.7049 13.0923 36.7308 14.8022V23.501M30.1154 40.8656C31.8699 40.8656 33.5525 40.1686 34.7932 38.9281C36.0338 37.6875 36.7308 36.0049 36.7308 34.2505V26.8086M30.1154 40.8656C30.1154 41.9621 29.6798 43.0137 28.9044 43.7891C28.129 44.5644 27.0773 45 25.9808 45H21.0192C19.9227 45 18.871 44.5644 18.0956 43.7891C17.3202 43.0137 16.8846 41.9621 16.8846 40.8656C16.8846 39.7691 17.3202 38.7175 18.0956 37.9421C18.871 37.1668 19.9227 36.7312 21.0192 36.7312H25.9808C27.0773 36.7312 28.129 37.1668 28.9044 37.9421C29.6798 38.7175 30.1154 39.7691 30.1154 40.8656ZM5.30769 18.5397H8.61538C9.05401 18.5397 9.47467 18.714 9.78483 19.0241C10.095 19.3343 10.2692 19.7549 10.2692 20.1935V30.1161C10.2692 30.5547 10.095 30.9754 9.78483 31.2855C9.47467 31.5956 9.05401 31.7699 8.61538 31.7699H5.30769C4.43044 31.7699 3.58911 31.4214 2.9688 30.8011C2.34849 30.1808 2 29.3396 2 28.4623V21.8473C2 20.9701 2.34849 20.1288 2.9688 19.5085C3.58911 18.8882 4.43044 18.5397 5.30769 18.5397ZM41.6923 31.7699H38.3846C37.946 31.7699 37.5253 31.5956 37.2152 31.2855C36.905 30.9754 36.7308 30.5547 36.7308 30.1161V20.1935C36.7308 19.7549 36.905 19.3343 37.2152 19.0241C37.5253 18.714 37.946 18.5397 38.3846 18.5397H41.6923C42.5696 18.5397 43.4109 18.8882 44.0312 19.5085C44.6515 20.1288 45 20.9701 45 21.8473V28.4623C45 29.3396 44.6515 30.1808 44.0312 30.8011C43.4109 31.4214 42.5696 31.7699 41.6923 31.7699Z" stroke="#3C7BF6" stroke-width="3.3" stroke-linecap="round" stroke-linejoin="round"/>
</svg>
