<svg width="30" height="24" viewBox="0 0 30 24" fill="none" xmlns="http://www.w3.org/2000/svg">
<path d="M1.65625 11.675C1.65625 6.64307 1.65625 4.12644 3.22014 2.56389C4.78269 1 7.29932 1 12.3312 1H17.6687C22.7007 1 25.2173 1 26.7799 2.56389C28.3437 4.12644 28.3437 6.64307 28.3437 11.675C28.3437 16.7069 28.3437 19.2236 26.7799 20.7861C25.2173 22.35 22.7007 22.35 17.6687 22.35H12.3312C7.29932 22.35 4.78269 22.35 3.22014 20.7861C1.65625 19.2236 1.65625 16.7069 1.65625 11.675Z" stroke="#020428" stroke-width="1.8"/>
<path d="M12.3312 17.0125H6.99375M17.6687 17.0125H15.6672M1.65625 9.00624H28.3437" stroke="#020428" stroke-width="1.8" stroke-linecap="round"/>
</svg>
