<svg width="29" height="28" viewBox="0 0 29 28" fill="none" xmlns="http://www.w3.org/2000/svg">
<path d="M12.9784 0.882528C13.1335 0.614002 13.3556 0.391199 13.6227 0.236345C13.8898 0.0814914 14.1925 0 14.5005 0C14.8086 0 15.1112 0.0814914 15.3783 0.236345C15.6454 0.391199 15.8676 0.614002 16.0227 0.882528L19.962 7.70517L27.6123 9.37741C27.9133 9.44338 28.1918 9.58779 28.4202 9.79623C28.6485 10.0047 28.8188 10.2699 28.9139 10.5654C29.009 10.8609 29.0257 11.1764 28.9622 11.4804C28.8988 11.7844 28.7575 12.0664 28.5524 12.2981L23.3376 18.1865L24.1268 26.043C24.158 26.3523 24.1081 26.6645 23.9823 26.9483C23.8564 27.2322 23.659 27.4778 23.4096 27.6605C23.1603 27.8433 22.8678 27.9569 22.5613 27.9899C22.2549 28.023 21.9452 27.9743 21.6632 27.8489L14.5005 24.6636L7.33787 27.8489C7.05587 27.9743 6.74618 28.023 6.43972 27.9899C6.13327 27.9569 5.84076 27.8433 5.59142 27.6605C5.34208 27.4778 5.14462 27.2322 5.01877 26.9483C4.89292 26.6645 4.84307 26.3523 4.87421 26.043L5.66348 18.1865L0.448639 12.2996C0.243185 12.0678 0.101578 11.7858 0.0379541 11.4815C-0.0256693 11.1773 -0.00908294 10.8616 0.0860573 10.5658C0.181198 10.2701 0.351563 10.0047 0.580146 9.79618C0.808729 9.58764 1.08753 9.44324 1.38872 9.37741L9.03904 7.70517L12.9784 0.882528Z" fill="#FF9900"/>
</svg>
