<svg width="65" height="38" viewBox="0 0 65 38" fill="none" xmlns="http://www.w3.org/2000/svg">
<path d="M63.8074 15.4439L60.827 8.53476C59.7433 6.02852 57.3048 4.40285 54.5276 4.40285H49.7183V2.64171C49.7183 1.21925 48.5668 0 47.0766 0H13.4794C12.4634 0 11.7183 0.812835 11.7183 1.76114C11.7183 2.70945 12.5311 3.52228 13.4794 3.52228H46.0605V16.5276C46.0605 18.1533 47.3475 19.4403 48.9732 19.4403H60.6916V27.6364C60.6916 27.975 60.4206 28.246 60.0819 28.246H57.9144C56.7629 26.2816 54.663 24.9947 52.2923 24.9947C49.9215 24.9947 47.8217 26.3494 46.6702 28.246H28.5846C27.4331 26.2816 25.3333 24.9947 22.9625 24.9947C20.5917 24.9947 18.4919 26.3494 17.3404 28.246H11.1087C10.0926 28.246 9.34753 29.0588 9.34753 30.0071C9.34753 31.0232 10.1604 31.7683 11.1087 31.7683H16.4598C16.5953 35.2228 19.4402 38 22.9625 38C26.4848 38 29.3297 35.2228 29.4652 31.7683H45.7896C45.9251 35.2228 48.77 38 52.2923 38C55.8146 38 58.6595 35.2228 58.7949 31.7683H60.2174C62.5204 31.7683 64.3493 29.8717 64.3493 27.6364V18.1533C64.3493 17.2727 64.1461 16.3244 63.8074 15.4439ZM22.9625 34.4777C21.3368 34.4777 19.9821 33.123 19.9821 31.4973C19.9821 29.8717 21.3368 28.5169 22.9625 28.5169C24.5882 28.5169 25.9429 29.8717 25.9429 31.4973C25.9429 33.123 24.5882 34.4777 22.9625 34.4777ZM52.2923 34.4777C50.6666 34.4777 49.3119 33.123 49.3119 31.4973C49.3119 29.8717 50.6666 28.5169 52.2923 28.5169C53.9179 28.5169 55.2727 29.8717 55.2727 31.4973C55.2727 33.123 53.9179 34.4777 52.2923 34.4777ZM49.6506 7.99287H54.4598C55.7468 7.99287 56.9661 8.73797 57.4402 9.95722L60.0142 15.918H49.6506V7.99287Z" fill="#3C7BF6"/>
<path d="M8.39932 10.9056H20.8628C21.8788 10.9056 22.6239 10.0927 22.6239 9.14444C22.6239 8.1284 21.8111 7.3833 20.8628 7.3833H8.39932C7.38328 7.3833 6.63818 8.19614 6.63818 9.14444C6.63818 10.0927 7.45102 10.9056 8.39932 10.9056Z" fill="#3C7BF6"/>
<path d="M5.08023 17.679H17.5437C18.5597 17.679 19.3048 16.8662 19.3048 15.9179C19.3048 14.9018 18.492 14.1567 17.5437 14.1567H5.08023C4.06419 14.1567 3.31909 14.9696 3.31909 15.9179C3.31909 16.8662 4.13193 17.679 5.08023 17.679Z" fill="#3C7BF6"/>
<path d="M16.0535 22.6916C16.0535 21.6755 15.2406 20.9304 14.2923 20.9304H1.76114C0.745098 20.9304 0 21.7433 0 22.6916C0 23.7076 0.812834 24.4527 1.76114 24.4527H14.2246C15.2406 24.5204 16.0535 23.7076 16.0535 22.6916Z" fill="#3C7BF6"/>
</svg>
