<svg width="44" height="42" viewBox="0 0 44 42" fill="none" xmlns="http://www.w3.org/2000/svg">
<path d="M10.0842 15.9641H18.0631" stroke="#3C7BF6" stroke-width="3.3" stroke-linecap="round" stroke-linejoin="round"/>
<path d="M39.6721 17.959H34.4818C30.9212 17.959 28.0368 20.6379 28.0368 23.9432C28.0368 27.2485 30.9232 29.9274 34.4798 29.9274H39.6721C39.8397 29.9274 39.9215 29.9274 39.9913 29.9234C41.0684 29.8576 41.9262 29.0617 41.996 28.0623C42 27.9985 42 27.9207 42 27.7671V20.1193C42 19.9657 42 19.8879 41.996 19.8241C41.9242 18.8247 41.0684 18.0288 39.9913 17.963C39.9215 17.959 39.8397 17.959 39.6721 17.959Z" stroke="#3C7BF6" stroke-width="3.3"/>
<path d="M39.9354 17.9588C39.7799 14.2246 39.2812 11.9347 37.6674 10.3229C35.3316 7.98511 31.5695 7.98511 24.0473 7.98511H18.0631C10.541 7.98511 6.7789 7.98511 4.44306 10.3229C2.10522 12.6588 2.10522 16.4209 2.10522 23.943C2.10522 31.4652 2.10522 35.2272 4.44306 37.5631C6.7789 39.9009 10.541 39.9009 18.0631 39.9009H24.0473C31.5695 39.9009 35.3316 39.9009 37.6674 37.5631C39.2812 35.9513 39.7818 33.6614 39.9354 29.9272" stroke="#3C7BF6" stroke-width="3.3"/>
<path d="M10.0842 7.98526L17.5345 3.0443C18.5823 2.36277 19.8053 2 21.0552 2C22.3051 2 23.5282 2.36277 24.5759 3.0443L32.0263 7.98526" stroke="#3C7BF6" stroke-width="3.3" stroke-linecap="round"/>
<path d="M34.003 23.9434H34.0231" stroke="#3C7BF6" stroke-width="3.3" stroke-linecap="round" stroke-linejoin="round"/>
</svg>
