<svg width="21" height="21" viewBox="0 0 21 21" fill="none" xmlns="http://www.w3.org/2000/svg">
<path d="M10.5 0C16.2991 0 21 4.70085 21 10.5C21 16.2991 16.2991 21 10.5 21C4.70085 21 0 16.2991 0 10.5C0 4.70085 4.70085 0 10.5 0ZM10.5 2.1C8.27218 2.1 6.13561 2.985 4.5603 4.5603C2.985 6.13561 2.1 8.27218 2.1 10.5C2.1 12.7278 2.985 14.8644 4.5603 16.4397C6.13561 18.015 8.27218 18.9 10.5 18.9C12.7278 18.9 14.8644 18.015 16.4397 16.4397C18.015 14.8644 18.9 12.7278 18.9 10.5C18.9 8.27218 18.015 6.13561 16.4397 4.5603C14.8644 2.985 12.7278 2.1 10.5 2.1ZM10.5 14.7C10.7785 14.7 11.0455 14.8106 11.2425 15.0075C11.4394 15.2044 11.55 15.4715 11.55 15.75C11.55 16.0285 11.4394 16.2955 11.2425 16.4925C11.0455 16.6894 10.7785 16.8 10.5 16.8C10.2215 16.8 9.95445 16.6894 9.75754 16.4925C9.56062 16.2955 9.45 16.0285 9.45 15.75C9.45 15.4715 9.56062 15.2044 9.75754 15.0075C9.95445 14.8106 10.2215 14.7 10.5 14.7ZM10.5 4.725C11.3844 4.72503 12.2412 5.03302 12.9232 5.59608C13.6052 6.15914 14.0698 6.94211 14.2373 7.81051C14.4047 8.6789 14.2646 9.57851 13.8409 10.3548C13.4172 11.1311 12.7364 11.7356 11.9154 12.0645C11.7944 12.1104 11.6851 12.1825 11.5951 12.2755C11.5489 12.328 11.5416 12.3952 11.5426 12.4646L11.55 12.6C11.5497 12.8676 11.4472 13.125 11.2635 13.3196C11.0798 13.5142 10.8287 13.6313 10.5615 13.647C10.2944 13.6627 10.0313 13.5758 9.82608 13.404C9.62085 13.2323 9.48896 12.9886 9.45735 12.7228L9.45 12.6V12.3375C9.45 11.1268 10.4265 10.4002 11.1342 10.1157C11.4222 10.0007 11.6735 9.80938 11.861 9.56234C12.0485 9.31529 12.1652 9.02184 12.1985 8.71348C12.2318 8.40513 12.1805 8.09353 12.05 7.81215C11.9196 7.53076 11.715 7.29022 11.4582 7.11635C11.2013 6.94248 10.902 6.84186 10.5923 6.82528C10.2826 6.80871 9.97423 6.8768 9.70031 7.02226C9.42639 7.16772 9.19727 7.38505 9.03755 7.65091C8.87783 7.91676 8.79355 8.2211 8.79375 8.53125C8.79375 8.80973 8.68312 9.0768 8.48621 9.27371C8.2893 9.47062 8.02223 9.58125 7.74375 9.58125C7.46527 9.58125 7.1982 9.47062 7.00129 9.27371C6.80437 9.0768 6.69375 8.80973 6.69375 8.53125C6.69375 7.52177 7.09476 6.55364 7.80857 5.83982C8.52238 5.12601 9.49052 4.725 10.5 4.725Z" fill="#3C7BF6"/>
</svg>
