<svg width="39" height="41" viewBox="0 0 39 41" fill="none" xmlns="http://www.w3.org/2000/svg">
<path d="M13.7962 25L19.5 21.45L25.2037 25L23.6925 18.35L28.7625 13.85L22.0837 13.3L19.5 7L16.9162 13.3L10.2375 13.85L15.3075 18.35L13.7962 25ZM0 40.5V4.5C0 3.4 0.3822 2.45867 1.1466 1.676C1.911 0.893333 2.8288 0.501333 3.9 0.5H35.1C36.1725 0.5 37.0909 0.892 37.8553 1.676C38.6197 2.46 39.0013 3.40133 39 4.5V28.5C39 29.6 38.6184 30.542 37.8553 31.326C37.0922 32.11 36.1738 32.5013 35.1 32.5H7.8L0 40.5ZM6.1425 28.5H35.1V4.5H3.9V30.75L6.1425 28.5Z" fill="white"/>
</svg>
