<svg width="43" height="39" viewBox="0 0 43 39" fill="none" xmlns="http://www.w3.org/2000/svg">
<path d="M25.8334 10.8333V6.49999C25.8334 5.35072 25.3768 4.24852 24.5641 3.43586C23.7515 2.6232 22.6493 2.16666 21.5 2.16666H6.33334C5.18406 2.16666 4.08186 2.6232 3.2692 3.43586C2.45655 4.24852 2 5.35072 2 6.49999V32.5C2 33.6493 2.45655 34.7515 3.2692 35.5641C4.08186 36.3768 5.18406 36.8334 6.33334 36.8334H21.5C22.6493 36.8334 23.7515 36.3768 24.5641 35.5641C25.3768 34.7515 25.8334 33.6493 25.8334 32.5V28.1667" stroke="white" stroke-width="3.5" stroke-linecap="round" stroke-linejoin="round"/>
<path d="M14.998 19.5H40.9981M40.9981 19.5L34.4981 13M40.9981 19.5L34.4981 26" stroke="white" stroke-width="3.5" stroke-linecap="round" stroke-linejoin="round"/>
</svg>
