<svg width="48" height="33" viewBox="0 0 48 33" fill="none" xmlns="http://www.w3.org/2000/svg">
<path d="M33 22.3929C32.5226 22.3929 32.0648 22.5791 31.7272 22.9107C31.3896 23.2422 31.2 23.6919 31.2 24.1607C31.2 24.6296 31.3896 25.0792 31.7272 25.4108C32.0648 25.7423 32.5226 25.9286 33 25.9286H39C39.4774 25.9286 39.9352 25.7423 40.2728 25.4108C40.6104 25.0792 40.8 24.6296 40.8 24.1607C40.8 23.6919 40.6104 23.2422 40.2728 22.9107C39.9352 22.5791 39.4774 22.3929 39 22.3929H33ZM0 7.66071C0 5.62897 0.821783 3.68043 2.28457 2.24377C3.74735 0.807108 5.73131 0 7.8 0H40.2C41.2243 0 42.2386 0.198151 43.1849 0.583138C44.1313 0.968125 44.9911 1.53241 45.7154 2.24377C46.4397 2.95513 47.0143 3.79965 47.4063 4.72909C47.7983 5.65853 48 6.6547 48 7.66071V25.3393C48 26.3453 47.7983 27.3415 47.4063 28.2709C47.0143 29.2004 46.4397 30.0449 45.7154 30.7562C44.9911 31.4676 44.1313 32.0319 43.1849 32.4169C42.2386 32.8019 41.2243 33 40.2 33H7.8C5.73131 33 3.74735 32.1929 2.28457 30.7562C0.821783 29.3196 0 27.371 0 25.3393V7.66071ZM44.4 10.6071V7.66071C44.4 6.5667 43.9575 5.51749 43.1698 4.7439C42.3822 3.97031 41.3139 3.53571 40.2 3.53571H7.8C6.68609 3.53571 5.6178 3.97031 4.83015 4.7439C4.0425 5.51749 3.6 6.5667 3.6 7.66071V10.6071H44.4ZM3.6 14.1429V25.3393C3.6 27.6163 5.4816 29.4643 7.8 29.4643H40.2C41.3139 29.4643 42.3822 29.0297 43.1698 28.2561C43.9575 27.4825 44.4 26.4333 44.4 25.3393V14.1429H3.6Z" fill="#3C7BF6"/>
</svg>
