<svg width="27" height="27" viewBox="0 0 27 27" fill="none" xmlns="http://www.w3.org/2000/svg">
<path d="M13.5 26C20.4036 26 26 20.4036 26 13.5C26 6.59644 20.4036 1 13.5 1C6.59644 1 1 6.59644 1 13.5C1 20.4036 6.59644 26 13.5 26Z" stroke="#3C7BF6" stroke-width="2"/>
<path d="M13.4998 6V21M17.2498 10.375C17.2498 8.65 15.571 7.25 13.4998 7.25C11.4285 7.25 9.74976 8.65 9.74976 10.375C9.74976 12.1 11.4285 13.5 13.4998 13.5C15.571 13.5 17.2498 14.9 17.2498 16.625C17.2498 18.35 15.571 19.75 13.4998 19.75C11.4285 19.75 9.74976 18.35 9.74976 16.625" stroke="#3C7BF6" stroke-width="2" stroke-linecap="round"/>
</svg>
