<svg width="33" height="22" viewBox="0 0 33 22" fill="none" xmlns="http://www.w3.org/2000/svg">
<path d="M0 0V2H19.5938V17H13.2454C12.7854 15.281 11.1911 14 9.28125 14C7.37138 14 5.77706 15.281 5.31713 17H4.125V12H2.0625V19H5.31713C5.77706 20.719 7.37138 22 9.28125 22C11.1911 22 12.7854 20.719 13.2454 19H21.8171C22.2771 20.719 23.8714 22 25.7812 22C27.6911 22 29.2854 20.719 29.7454 19H33V10.844L32.935 10.687L30.8725 4.687L30.6487 4H21.6562V0H0ZM1.03125 4V6H10.3125V4H1.03125ZM21.6562 6H29.1648L30.9375 11.125V17H29.7454C29.2854 15.281 27.6911 14 25.7812 14C23.8714 14 22.2771 15.281 21.8171 17H21.6562V6ZM2.0625 8V10H8.25V8H2.0625ZM9.28125 16C10.4332 16 11.3438 16.883 11.3438 18C11.3438 19.117 10.4332 20 9.28125 20C8.12934 20 7.21875 19.117 7.21875 18C7.21875 16.883 8.12934 16 9.28125 16ZM25.7812 16C26.9332 16 27.8438 16.883 27.8438 18C27.8438 19.117 26.9332 20 25.7812 20C24.6293 20 23.7188 19.117 23.7188 18C23.7188 16.883 24.6293 16 25.7812 16Z" fill="#3C7BF6"/>
</svg>
