<svg width="27" height="12" viewBox="0 0 27 12" fill="none" xmlns="http://www.w3.org/2000/svg">
<path d="M10.7 0.180655L7.28773 7.90167H5.06163L3.38243 1.73957C3.28062 1.36095 3.19216 1.22161 2.88236 1.06151C2.37597 0.800592 1.53973 0.556576 0.804688 0.404779L0.854267 0.180655H4.43827C4.89436 0.180655 5.30505 0.468704 5.4095 0.967454L6.29675 5.43573L8.48722 0.180655H10.7ZM13.7094 0.180655L11.9682 7.90167H9.86202L11.6034 0.180655H13.7094ZM19.4224 5.38078C19.4311 3.34339 16.4523 3.23032 16.4717 2.32002C16.4788 2.04327 16.7568 1.74865 17.3652 1.67333C17.6665 1.63635 18.4991 1.6069 19.4421 2.01903L19.8111 0.380735C19.3044 0.206921 18.6523 0.0396729 17.8412 0.0396729C15.7593 0.0396729 14.2948 1.08854 14.2831 2.59165C14.2694 3.70348 15.3291 4.32313 16.1261 4.69345C16.9469 5.07159 17.2222 5.31464 17.2185 5.65261C17.2126 6.17067 16.5628 6.40001 15.9588 6.40851C14.8996 6.42444 14.2856 6.13697 13.7958 5.92057L13.4135 7.61314C13.9063 7.82731 14.8144 8.01339 15.755 8.02285C17.9683 8.02285 19.4159 6.98596 19.4224 5.38078ZM24.9199 7.90176H26.8672L25.166 0.180655H23.3694C22.9642 0.180655 22.6237 0.403717 22.4726 0.746613L19.3125 7.90167H21.5241L21.9628 6.74832H24.6647L24.9199 7.90176ZM22.5692 5.16622L23.6781 2.26671L24.3151 5.16622H22.5692ZM16.4048 10.027H15.549V10.7824H16.5062V11.0096H15.2607V8.91385H16.4572V9.14096H15.549V9.8031H16.4047L16.4048 10.027ZM16.9484 8.80202H17.2367V11.0095H16.9484V8.80202ZM17.9642 10.3068C17.9707 10.6769 18.2167 10.8292 18.5083 10.8292C18.7149 10.8292 18.8427 10.795 18.9478 10.7515L19.0001 10.9475C18.8985 10.9909 18.7215 11.0437 18.469 11.0437C17.9807 11.0437 17.689 10.736 17.689 10.282C17.689 9.82811 17.9707 9.47353 18.433 9.47353C18.9543 9.47353 19.0887 9.90275 19.0887 10.1794C19.0887 10.2353 19.0853 10.2757 19.0787 10.3069L17.9642 10.3068ZM18.8099 10.1109C18.8133 9.94002 18.7346 9.66945 18.41 9.66945C18.115 9.66945 17.9904 9.92129 17.9674 10.1109H18.8099ZM20.6581 10.9566C20.5828 10.9909 20.4155 11.0438 20.2025 11.0438C19.7239 11.0438 19.4125 10.736 19.4125 10.2758C19.4125 9.81246 19.7467 9.47362 20.2647 9.47362C20.4351 9.47362 20.5859 9.51389 20.6646 9.55445L20.5993 9.76273C20.5301 9.72855 20.422 9.69108 20.2647 9.69108C19.9008 9.69108 19.7043 9.9492 19.7043 10.2603C19.7043 10.6084 19.9403 10.823 20.2549 10.823C20.4189 10.823 20.527 10.7857 20.6089 10.7515L20.6581 10.9566ZM21.4673 9.14396V9.50462H21.8802V9.71281H21.4673V10.5244C21.4673 10.7112 21.5231 10.8167 21.6836 10.8167C21.7622 10.8167 21.8082 10.8106 21.8509 10.798L21.864 11.0066C21.8082 11.0251 21.7197 11.0437 21.6083 11.0437C21.4738 11.0437 21.3656 11.0002 21.2968 10.9288C21.2181 10.8447 21.1854 10.7112 21.1854 10.5339V9.71281H20.9394V9.50462H21.1854V9.22478L21.4673 9.14396ZM22.283 9.97421C22.283 9.79692 22.2796 9.64464 22.2699 9.50462H22.5224L22.5356 9.803H22.5452C22.6175 9.60109 22.7943 9.47353 22.9876 9.47353C23.0173 9.47353 23.0403 9.47671 23.0665 9.47971V9.73792C23.037 9.73154 23.0076 9.73154 22.968 9.73154C22.765 9.73154 22.6205 9.87455 22.5813 10.0799C22.5746 10.1221 22.5713 10.1647 22.5715 10.2074V11.0097H22.283V9.97421ZM24.8395 10.2446C24.8395 10.8012 24.4296 11.0437 24.0495 11.0437C23.6232 11.0437 23.289 10.7452 23.289 10.2696C23.289 9.76891 23.6397 9.47362 24.0758 9.47362C24.5313 9.47362 24.8395 9.78736 24.8395 10.2446ZM23.5839 10.2603C23.5839 10.5899 23.7806 10.8387 24.0625 10.8387C24.338 10.8387 24.5444 10.5929 24.5444 10.254C24.5444 9.99912 24.41 9.67872 24.069 9.67872C23.7315 9.67872 23.5839 9.97739 23.5839 10.2603ZM25.2815 9.91202C25.2815 9.75356 25.2781 9.62909 25.2683 9.50481H25.5241L25.5404 9.75356H25.547C25.6257 9.61354 25.8092 9.47372 26.0715 9.47372C26.291 9.47372 26.632 9.59809 26.632 10.114V11.0097H26.3436V10.1421C26.3436 9.89976 26.2485 9.69746 25.9765 9.69746C25.7896 9.69746 25.6419 9.82502 25.5897 9.9773C25.5765 10.0116 25.57 10.0581 25.57 10.1049V11.0097H25.2815V9.91202Z" fill="#AEB2EC"/>
</svg>
